<?xml version="1.0" encoding="UTF-8" standalone="no"?>
<!DOCTYPE svg PUBLIC "-//W3C//DTD SVG 1.1//EN"
 "http://www.w3.org/Graphics/SVG/1.1/DTD/svg11.dtd">
<!-- Generated by graphviz version 13.0.0 (20250608.1624)
 -->
<!-- Pages: 1 -->
<svg width="527pt" height="58pt"
 viewBox="0.00 0.00 527.00 58.00" xmlns="http://www.w3.org/2000/svg" xmlns:xlink="http://www.w3.org/1999/xlink">
<g id="graph0" class="graph" transform="scale(1 1) rotate(0) translate(4 54)">
<polygon fill="white" stroke="none" points="-4,4 -4,-54 522.92,-54 522.92,4 -4,4"/>
<!-- 2312225840592 -->
<g id="node1" class="node">
<title>2312225840592</title>
<polygon fill="none" stroke="black" points="0,-0.5 0,-49.5 85,-49.5 85,-0.5 0,-0.5"/>
<text xml:space="preserve" text-anchor="middle" x="42.5" y="-32.2" font-family="Times New Roman,serif" font-size="14.00">x</text>
<polyline fill="none" stroke="black" points="0,-25 85,-25"/>
<text xml:space="preserve" text-anchor="middle" x="42.5" y="-7.7" font-family="Times New Roman,serif" font-size="14.00">shape=(2, 2)</text>
</g>
<!-- 2312225834768reshape -->
<g id="node3" class="node">
<title>2312225834768reshape</title>
<ellipse fill="none" stroke="black" cx="160.07" cy="-25" rx="39.07" ry="18"/>
<text xml:space="preserve" text-anchor="middle" x="160.07" y="-19.95" font-family="Times New Roman,serif" font-size="14.00">reshape</text>
</g>
<!-- 2312225840592&#45;&gt;2312225834768reshape -->
<g id="edge3" class="edge">
<title>2312225840592&#45;&gt;2312225834768reshape</title>
<path fill="none" stroke="black" d="M85.22,-25C93.13,-25 101.48,-25 109.6,-25"/>
<polygon fill="black" stroke="black" points="109.35,-28.5 119.35,-25 109.35,-21.5 109.35,-28.5"/>
</g>
<!-- 2312225834768 -->
<g id="node2" class="node">
<title>2312225834768</title>
<polygon fill="none" stroke="black" points="235.14,-0.5 235.14,-49.5 320.14,-49.5 320.14,-0.5 235.14,-0.5"/>
<text xml:space="preserve" text-anchor="middle" x="277.64" y="-32.2" font-family="Times New Roman,serif" font-size="14.00"> </text>
<polyline fill="none" stroke="black" points="235.14,-25 320.14,-25"/>
<text xml:space="preserve" text-anchor="middle" x="277.64" y="-7.7" font-family="Times New Roman,serif" font-size="14.00">shape=(4, 1)</text>
</g>
<!-- 2312225836112mean -->
<g id="node5" class="node">
<title>2312225836112mean</title>
<ellipse fill="none" stroke="black" cx="387.53" cy="-25" rx="31.39" ry="18"/>
<text xml:space="preserve" text-anchor="middle" x="387.53" y="-19.95" font-family="Times New Roman,serif" font-size="14.00">mean</text>
</g>
<!-- 2312225834768&#45;&gt;2312225836112mean -->
<g id="edge4" class="edge">
<title>2312225834768&#45;&gt;2312225836112mean</title>
<path fill="none" stroke="black" d="M320.35,-25C328.32,-25 336.66,-25 344.64,-25"/>
<polygon fill="black" stroke="black" points="344.45,-28.5 354.45,-25 344.45,-21.5 344.45,-28.5"/>
</g>
<!-- 2312225834768reshape&#45;&gt;2312225834768 -->
<g id="edge1" class="edge">
<title>2312225834768reshape&#45;&gt;2312225834768</title>
<path fill="none" stroke="black" d="M199.55,-25C207.23,-25 215.42,-25 223.48,-25"/>
<polygon fill="black" stroke="black" points="223.23,-28.5 233.23,-25 223.23,-21.5 223.23,-28.5"/>
</g>
<!-- 2312225836112 -->
<g id="node4" class="node">
<title>2312225836112</title>
<polygon fill="none" stroke="black" points="454.92,-0.5 454.92,-49.5 518.92,-49.5 518.92,-0.5 454.92,-0.5"/>
<text xml:space="preserve" text-anchor="middle" x="486.92" y="-32.2" font-family="Times New Roman,serif" font-size="14.00"> </text>
<polyline fill="none" stroke="black" points="454.92,-25 518.92,-25"/>
<text xml:space="preserve" text-anchor="middle" x="486.92" y="-7.7" font-family="Times New Roman,serif" font-size="14.00">shape=()</text>
</g>
<!-- 2312225836112mean&#45;&gt;2312225836112 -->
<g id="edge2" class="edge">
<title>2312225836112mean&#45;&gt;2312225836112</title>
<path fill="none" stroke="black" d="M419.34,-25C426.91,-25 435.14,-25 443.15,-25"/>
<polygon fill="black" stroke="black" points="443.12,-28.5 453.12,-25 443.12,-21.5 443.12,-28.5"/>
</g>
</g>
</svg>
